<svg xmlns="http://www.w3.org/2000/svg" width="128pt" height="128pt" viewBox="0 0 128 128" version="1.1"><g stroke="none" fill-rule="nonzero" fill-opacity="1"><path d="M58 112c0-3.313 2.688-6 6-6V73.793A13.95 13.95 0 0 1 60 64a13.95 13.95 0 0 1 4-9.793V0C28.652 0 0 28.652 0 64s28.652 64 64 64v-10c-3.313 0-6-2.688-6-6zM26 84c-5.523 0-10-4.477-10-10s4.477-10 10-10 10 4.477 10 10-4.477 10-10 10zm12-52c-3.313 0-6-2.688-6-6 0-3.313 2.688-6 6-6 3.313 0 6 2.688 6 6 0 3.313-2.688 6-6 6zm0 0" fill="#ff9811"/><path d="M84 16a27.905 27.905 0 0 1 2.64-11.875A63.825 63.825 0 0 0 64 0v54.207A13.962 13.962 0 0 1 74 50c7.73 0 14 6.27 14 14s-6.27 14-14 14a13.962 13.962 0 0 1-10-4.207V106c3.313 0 6 2.688 6 6 0 3.313-2.688 6-6 6v10c35.348 0 64-28.652 64-64 0-7.973-1.46-15.602-4.125-22.64A27.905 27.905 0 0 1 112 44c-15.465 0-28-12.535-28-28zm32 61.602c0 3.312-2.688 6-6 6-3.313 0-6-2.688-6-6 0-3.317 2.688-6 6-6 3.313 0 6 2.683 6 6zm0 0" fill="#bf720d"/><path d="M44 26c0 3.313-2.688 6-6 6-3.313 0-6-2.688-6-6 0-3.313 2.688-6 6-6 3.313 0 6 2.688 6 6zm0 0M70 112c0 3.313-2.688 6-6 6-3.313 0-6-2.688-6-6 0-3.313 2.688-6 6-6 3.313 0 6 2.688 6 6zm0 0M36 74c0 5.523-4.477 10-10 10s-10-4.477-10-10 4.477-10 10-10 10 4.477 10 10zm0 0M64 73.793A13.962 13.962 0 0 0 74 78c7.73 0 14-6.27 14-14s-6.27-14-14-14a13.962 13.962 0 0 0-10 4.207A13.95 13.95 0 0 0 60 64a13.95 13.95 0 0 0 4 9.793zm0 0M116 77.602c0 3.312-2.688 6-6 6-3.313 0-6-2.688-6-6 0-3.317 2.688-6 6-6 3.313 0 6 2.683 6 6zm0 0" fill="#50412e"/></g></svg>