<?xml version="1.0" encoding="UTF-8" standalone="no"?>
<!-- Generator: Gravit.io -->

<svg
   xmlns:dc="http://purl.org/dc/elements/1.1/"
   xmlns:cc="http://creativecommons.org/ns#"
   xmlns:rdf="http://www.w3.org/1999/02/22-rdf-syntax-ns#"
   xmlns:svg="http://www.w3.org/2000/svg"
   xmlns="http://www.w3.org/2000/svg"
   xmlns:sodipodi="http://sodipodi.sourceforge.net/DTD/sodipodi-0.dtd"
   xmlns:inkscape="http://www.inkscape.org/namespaces/inkscape"
   style="isolation:isolate"
   viewBox="0 0 160 160"
   width="160"
   height="160"
   version="1.1"
   id="svg101"
   sodipodi:docname="icon-xcoobee-form.svg"
   inkscape:version="0.92.3 (2405546, 2018-03-11)">
  <metadata
     id="metadata105">
    <rdf:RDF>
      <cc:Work
         rdf:about="">
        <dc:format>image/svg+xml</dc:format>
        <dc:type
           rdf:resource="http://purl.org/dc/dcmitype/StillImage" />
        <dc:title></dc:title>
      </cc:Work>
    </rdf:RDF>
  </metadata>
  <sodipodi:namedview
     pagecolor="#ffffff"
     bordercolor="#666666"
     borderopacity="1"
     objecttolerance="10"
     gridtolerance="10"
     guidetolerance="10"
     inkscape:pageopacity="0"
     inkscape:pageshadow="2"
     inkscape:window-width="1366"
     inkscape:window-height="704"
     id="namedview103"
     showgrid="false"
     fit-margin-top="0"
     fit-margin-left="0"
     fit-margin-right="0"
     fit-margin-bottom="0"
     inkscape:zoom="1.3037281"
     inkscape:cx="251.2733"
     inkscape:cy="144.28486"
     inkscape:window-x="0"
     inkscape:window-y="27"
     inkscape:window-maximized="1"
     inkscape:current-layer="svg101" />
  <defs
     id="defs5">
    <clipPath
       id="_clipPath_fhZ9wAfJqcD4TEth44brBMs8p0PK96LB">
      <rect
         width="512"
         height="512"
         id="rect2"
         x="0"
         y="0" />
    </clipPath>
  </defs>
  <g
     clip-path="url(#_clipPath_fhZ9wAfJqcD4TEth44brBMs8p0PK96LB)"
     id="g99"
     transform="matrix(0.3125,0,0,0.38022814,0,-17.338404)">
    <path
       d="M 4,462.4 V 113.6 h 504 v 303.856 c -0.016,24.808 -20.112,44.92 -44.92,44.944 H 4 Z"
       id="path7"
       inkscape:connector-curvature="0"
       style="fill:#ffffff" />
    <path
       d="m 504,117.6 v 299.856 c -0.016,22.6 -18.32,40.92 -40.92,40.944 H 8 V 117.6 Z m 8,-8 H 0 v 356.8 h 463.08 c 27.016,0 48.92,-21.904 48.92,-48.92 0,-0.008 0,-0.016 0,-0.024 z"
       id="path9"
       inkscape:connector-curvature="0"
       style="fill:#aac1ce" />
    <path
       d="m 31.92,45.6 h 448.16 c 17.632,0 31.92,14.288 31.92,31.92 0,0.008 0,0.016 0,0.024 v 32.184 H 0 V 77.544 C -0.016,59.912 14.264,45.616 31.896,45.6 c 0.008,0 0.016,0 0.024,0 z"
       id="path11"
       inkscape:connector-curvature="0"
       style="fill:#d1d1d1" />
    <g
       style="opacity:0.7"
       id="g17">
      <g
         id="g15"
         style="opacity:0.7">
        <circle
           cx="44.192001"
           cy="77.68"
           r="8.9280005"
           id="circle13"
           style="vector-effect:non-scaling-stroke;fill:#ffffff" />
      </g>
    </g>
    <g
       style="opacity:0.7"
       id="g23">
      <g
         id="g21"
         style="opacity:0.7">
        <circle
           cx="70.968002"
           cy="77.68"
           r="8.9280005"
           id="circle19"
           style="vector-effect:non-scaling-stroke;fill:#ffffff" />
      </g>
    </g>
    <g
       style="opacity:0.7"
       id="g29">
      <g
         id="g27"
         style="opacity:0.7">
        <circle
           cx="97.736"
           cy="77.68"
           r="8.9280005"
           id="circle25"
           style="vector-effect:non-scaling-stroke;fill:#ffffff" />
      </g>
    </g>
    <path
       d="m 460.928,93.36 h -317.84 l 16,-31.352 h 301.84 z"
       id="path31"
       inkscape:connector-curvature="0"
       style="fill:#ffffff" />
    <g
       id="g47">
      <path
         d="m 171.92,71.408 1.312,5.696 c 0.28,1.336 0.56,2.704 0.8,4.072 h 0.048 c 0.256,-1.368 0.672,-2.76 1.032,-4.048 l 1.6,-5.72 h 2.576 l 1.6,5.6 c 0.384,1.464 0.72,2.832 1,4.192 h 0.056 c 0.2,-1.368 0.496,-2.736 0.8,-4.192 l 1.392,-5.6 h 3.112 l -3.936,12.544 h -2.936 l -1.496,-5.104 c -0.384,-1.312 -0.704,-2.648 -0.952,-4 h -0.056 c -0.232,1.352 -0.552,2.688 -0.952,4 l -1.6,5.104 h -2.96 l -3.712,-12.544 z"
         id="path33"
         inkscape:connector-curvature="0"
         style="fill:#415e72" />
      <path
         d="m 192.272,71.408 1.312,5.696 c 0.28,1.336 0.56,2.704 0.8,4.072 h 0.016 c 0.248,-1.368 0.664,-2.76 1.024,-4.048 l 1.6,-5.72 h 2.576 l 1.6,5.6 c 0.384,1.464 0.72,2.832 1,4.192 h 0.056 c 0.2,-1.368 0.496,-2.736 0.8,-4.192 l 1.392,-5.6 h 3.12 l -3.944,12.544 h -2.936 l -1.496,-5.104 c -0.384,-1.312 -0.704,-2.648 -0.952,-4 v 0 c -0.232,1.352 -0.552,2.688 -0.952,4 l -1.6,5.104 h -2.96 l -3.712,-12.544 z"
         id="path35"
         inkscape:connector-curvature="0"
         style="fill:#415e72" />
      <path
         d="m 212.624,71.408 1.312,5.696 c 0.28,1.336 0.56,2.704 0.8,4.072 h 0.048 c 0.256,-1.368 0.672,-2.76 1.032,-4.048 l 1.6,-5.72 H 220 l 1.6,5.6 c 0.384,1.464 0.72,2.832 1,4.192 h 0.056 c 0.2,-1.368 0.496,-2.736 0.8,-4.192 l 1.392,-5.6 H 228 l -4,12.544 h -2.936 l -1.496,-5.104 c -0.384,-1.312 -0.704,-2.648 -0.952,-4 h -0.056 c -0.232,1.352 -0.552,2.688 -0.952,4 l -1.6,5.104 h -2.96 l -3.712,-12.544 z"
         id="path37"
         inkscape:connector-curvature="0"
         style="fill:#415e72" />
      <path
         d="m 229.136,82.208 c -0.056,-1.064 0.76,-1.976 1.832,-2.04 0.04,0 0.088,0 0.128,0 1.128,0.072 1.976,1.04 1.912,2.16 -0.064,1.024 -0.88,1.84 -1.912,1.912 -1.064,0.016 -1.944,-0.832 -1.96,-1.896 0,-0.04 0,-0.088 0,-0.136 z"
         id="path39"
         inkscape:connector-curvature="0"
         style="fill:#415e72" />
      <rect
         x="422.82401"
         y="75.671997"
         width="21.559999"
         height="4"
         id="rect41"
         style="fill:#415e72" />
      <path
         d="m 438.24,88.6 -2.824,-2.832 8.08,-8.096 -8.08,-8.08 2.824,-2.832 10.92,10.912 z"
         id="path43"
         inkscape:connector-curvature="0"
         style="fill:#415e72" />
      <rect
         x="105.416"
         y="206.44"
         width="301.168"
         height="197.864"
         id="rect45"
         style="fill:#415e72" />
    </g>
    <rect
       x="105.416"
       y="171.696"
       width="301.168"
       height="34.751999"
       id="rect49"
       style="fill:#ff9900" />
    <rect
       x="206.104"
       y="337.92001"
       width="99.792"
       height="34.751999"
       id="rect51"
       style="fill:#25b6d2" />
    <g
       id="g57">
      <rect
         x="159.312"
         y="281.76001"
         width="193.36"
         height="34.751999"
         id="rect53"
         style="fill:#ffffff" />
      <rect
         x="159.312"
         y="235.98399"
         width="193.36"
         height="34.751999"
         id="rect55"
         style="fill:#ffffff" />
    </g>
    <g
       id="g71">
      <circle
         cx="179.48801"
         cy="299.12"
         r="4.632"
         id="circle59"
         style="vector-effect:non-scaling-stroke;fill:#aec4ce" />
      <circle
         cx="196.28"
         cy="299.12"
         r="4.632"
         id="circle61"
         style="vector-effect:non-scaling-stroke;fill:#aec4ce" />
      <circle
         cx="213.08"
         cy="299.12"
         r="4.632"
         id="circle63"
         style="vector-effect:non-scaling-stroke;fill:#aec4ce" />
      <circle
         cx="229.87199"
         cy="299.12"
         r="4.632"
         id="circle65"
         style="vector-effect:non-scaling-stroke;fill:#aec4ce" />
      <circle
         cx="246.672"
         cy="299.12"
         r="4.632"
         id="circle67"
         style="vector-effect:non-scaling-stroke;fill:#aec4ce" />
      <circle
         cx="263.46399"
         cy="299.12"
         r="4.632"
         id="circle69"
         style="vector-effect:non-scaling-stroke;fill:#aec4ce" />
    </g>
    <g
       id="g85">
      <path
         d="m 227.832,359.744 c 0.92,0.552 1.976,0.848 3.048,0.856 1.736,0 2.752,-0.912 2.752,-2.24 0,-1.328 -0.704,-1.936 -2.48,-2.624 -2.152,-0.76 -3.48,-1.872 -3.48,-3.728 0.104,-2.088 1.88,-3.696 3.968,-3.592 0.096,0.008 0.192,0.016 0.288,0.024 1.008,-0.032 2.008,0.184 2.912,0.64 l -0.472,1.392 c -0.768,-0.408 -1.624,-0.624 -2.496,-0.624 -1.8,0 -2.488,1.072 -2.488,1.968 0,1.232 0.8,1.832 2.616,2.536 2.224,0.856 3.36,1.928 3.36,3.864 0,1.936 -1.504,3.792 -4.608,3.792 -1.168,0.024 -2.328,-0.248 -3.36,-0.8 z"
         id="path73"
         inkscape:connector-curvature="0"
         style="fill:#ffffff" />
      <path
         d="m 245.544,359.2 c 0,0.976 0,1.832 0.08,2.576 h -1.52 L 244,360.232 v 0 c -0.648,1.112 -1.84,1.784 -3.128,1.768 -1.488,0 -3.264,-0.8 -3.264,-4.144 v -5.528 h 1.72 v 5.272 c 0,1.8 0.544,3.008 2.112,3.008 1.008,-0.024 1.904,-0.656 2.264,-1.6 0.104,-0.28 0.16,-0.576 0.16,-0.88 v -5.8 h 1.72 z"
         id="path75"
         inkscape:connector-curvature="0"
         style="fill:#ffffff" />
      <path
         d="m 248.328,361.816 c 0,-0.64 0.08,-1.6 0.08,-2.4 v -11.472 h 1.696 v 5.936 0 c 0.664,-1.128 1.896,-1.8 3.2,-1.744 2.336,0.112 4.144,2.096 4.032,4.44 -0.008,0.12 -0.016,0.24 -0.032,0.36 0.32,2.464 -1.424,4.72 -3.888,5.032 -0.112,0.016 -0.232,0.024 -0.344,0.032 -1.328,0.088 -2.576,-0.608 -3.2,-1.784 h -0.056 l -0.08,1.6 z m 1.776,-3.792 c 0.008,0.208 0.032,0.416 0.08,0.624 0.296,1.184 1.36,2.008 2.576,2.008 1.8,0 2.864,-1.464 2.864,-3.624 0,-1.896 -0.968,-3.512 -2.816,-3.512 -1.248,0.016 -2.328,0.888 -2.608,2.112 -0.064,0.232 -0.096,0.464 -0.104,0.704 z"
         id="path77"
         inkscape:connector-curvature="0"
         style="fill:#ffffff" />
      <path
         d="m 259.512,354.928 c 0,-0.984 0,-1.784 -0.08,-2.56 h 1.504 l 0.08,1.52 h 0.056 c 0.576,-1.096 1.728,-1.776 2.968,-1.744 1.208,-0.016 2.296,0.752 2.68,1.896 v 0 c 0.264,-0.48 0.624,-0.896 1.056,-1.224 0.6,-0.464 1.336,-0.704 2.096,-0.672 1.248,0 3.104,0.8 3.104,4.112 v 5.6 h -1.68 v -5.352 c 0,-1.824 -0.664,-2.912 -2.048,-2.912 -0.952,0.04 -1.768,0.688 -2.032,1.6 -0.088,0.28 -0.144,0.568 -0.144,0.856 v 5.84 h -1.68 v -5.664 c 0,-1.504 -0.664,-2.6 -1.968,-2.6 -1.008,0.056 -1.864,0.744 -2.136,1.72 -0.096,0.272 -0.144,0.552 -0.136,0.84 v 5.704 h -1.688 z"
         id="path79"
         inkscape:connector-curvature="0"
         style="fill:#ffffff" />
      <path
         d="m 277.728,349.704 c 0.032,0.552 -0.4,1.032 -0.952,1.056 -0.048,0 -0.096,0 -0.144,0 -0.568,0.008 -1.024,-0.448 -1.032,-1.016 0,-0.016 0,-0.024 0,-0.04 -0.016,-0.576 0.44,-1.064 1.016,-1.08 0.024,0 0.04,0 0.064,0 0.56,-0.016 1.032,0.424 1.048,0.984 0,0.032 0,0.064 0,0.096 z m -1.904,12.112 v -9.456 h 1.72 v 9.456 z"
         id="path81"
         inkscape:connector-curvature="0"
         style="fill:#ffffff" />
      <path
         d="m 282.464,349.64 v 2.72 h 2.456 v 1.312 h -2.456 v 5.096 c 0,1.168 0.328,1.832 1.28,1.832 0.336,0.008 0.672,-0.032 1,-0.12 l 0.08,1.288 c -0.488,0.168 -1,0.248 -1.52,0.232 -0.696,0.032 -1.368,-0.232 -1.848,-0.728 -0.528,-0.704 -0.768,-1.584 -0.672,-2.456 v -5.16 h -1.464 v -1.312 h 1.48 v -2.264 z"
         id="path83"
         inkscape:connector-curvature="0"
         style="fill:#ffffff" />
    </g>
    <g
       id="g95">
      <path
         d="M 175.008,260.168 V 247 h 1.856 l 4.216,6.664 c 0.88,1.368 1.672,2.8 2.36,4.272 v 0 c -0.16,-1.752 -0.192,-3.36 -0.192,-5.408 v -5.504 h 1.6 v 13.168 H 183.2 l -4.176,-6.68 c -0.912,-1.416 -1.736,-2.888 -2.464,-4.4 h -0.056 c 0.096,1.664 0.136,3.24 0.136,5.432 v 5.6 z"
         id="path87"
         inkscape:connector-curvature="0"
         style="fill:#aec4ce" />
      <path
         d="m 193.04,260.168 -0.136,-1.184 h -0.064 c -0.68,0.904 -1.752,1.432 -2.888,1.408 -1.488,0.104 -2.776,-1.008 -2.88,-2.496 -0.008,-0.072 -0.008,-0.152 -0.008,-0.224 0,-2.28 2.032,-3.528 5.688,-3.512 v -0.192 c 0.136,-1.072 -0.624,-2.048 -1.696,-2.184 -0.152,-0.016 -0.304,-0.024 -0.456,0 -0.872,0 -1.72,0.248 -2.464,0.704 l -0.392,-1.136 c 0.936,-0.56 2.008,-0.856 3.104,-0.84 2.888,0 3.592,1.976 3.592,3.872 v 3.528 c -0.008,0.76 0.04,1.512 0.16,2.264 z m -0.248,-4.8 c -1.872,0 -4,0.296 -4,2.136 -0.064,0.84 0.552,1.568 1.392,1.64 0.072,0.008 0.136,0.008 0.208,0 1.032,0.024 1.952,-0.624 2.28,-1.6 0.064,-0.176 0.104,-0.36 0.104,-0.544 z"
         id="path89"
         inkscape:connector-curvature="0"
         style="fill:#aec4ce" />
      <path
         d="m 197.224,253.28 c 0,-0.984 0,-1.784 -0.08,-2.56 h 1.504 l 0.08,1.52 h 0.064 c 0.576,-1.096 1.728,-1.776 2.968,-1.744 1.208,-0.016 2.288,0.752 2.672,1.896 v 0 c 0.264,-0.48 0.624,-0.896 1.056,-1.224 0.6,-0.464 1.336,-0.704 2.096,-0.672 1.248,0 3.104,0.8 3.104,4.112 v 5.6 h -1.68 v -5.352 c 0,-1.824 -0.664,-2.912 -2.048,-2.912 -0.952,0.048 -1.768,0.688 -2.032,1.6 -0.088,0.28 -0.144,0.568 -0.144,0.856 v 5.84 h -1.68 v -5.664 c 0,-1.504 -0.664,-2.6 -1.968,-2.6 -1.008,0.056 -1.864,0.744 -2.136,1.72 -0.096,0.272 -0.136,0.552 -0.136,0.84 v 5.704 h -1.68 z"
         id="path91"
         inkscape:connector-curvature="0"
         style="fill:#aec4ce" />
      <path
         d="m 214.472,255.752 c -0.136,1.672 1.112,3.144 2.784,3.28 0.152,0.016 0.312,0.016 0.464,0 0.896,0.032 1.784,-0.136 2.608,-0.496 l 0.296,1.232 c -0.992,0.416 -2.064,0.616 -3.144,0.584 -2.424,0.16 -4.512,-1.68 -4.664,-4.096 -0.016,-0.232 -0.008,-0.472 0.008,-0.704 -0.28,-2.528 1.544,-4.8 4.064,-5.08 0.128,-0.016 0.248,-0.024 0.376,-0.024 2.208,0.04 3.968,1.864 3.928,4.072 0,0.128 -0.008,0.256 -0.024,0.384 0,0.264 -0.024,0.536 -0.064,0.8 z m 5.048,-1.224 c 0.192,-1.344 -0.744,-2.584 -2.088,-2.776 -0.104,-0.016 -0.208,-0.024 -0.312,-0.024 -1.472,0.112 -2.608,1.328 -2.632,2.8 z"
         id="path93"
         inkscape:connector-curvature="0"
         style="fill:#aec4ce" />
    </g>
    <path
       d="m 206.104,359.904 v -21.992 h 21.992 z"
       id="path97"
       inkscape:connector-curvature="0"
       style="fill:#25b6d2" />
  </g>
</svg>
