<svg xmlns="http://www.w3.org/2000/svg" width="128pt" height="130pt" viewBox="0 0 128 130" version="1.1"><g stroke="none" fill-rule="nonzero" fill-opacity="1"><path d="M34.484 54.773l.766-1.32c-.133 0-12.95-7.785-14.691-27.465l-1.528.133C20.848 46.625 33.95 54.45 34.484 54.773zm0 0" fill="#231f20"/><path d="M22.605 24.117a3.753 3.753 0 0 1-2.882 4.45 3.743 3.743 0 0 1-4.45-2.883 3.747 3.747 0 0 1 2.883-4.45 3.75 3.75 0 0 1 4.45 2.883zm0 0" fill="#231f20"/><path d="M14.516 25.852a4.51 4.51 0 0 1 2.058-4.786 4.513 4.513 0 0 1 6.613 5.356 4.512 4.512 0 0 1-4.253 3.008 4.493 4.493 0 0 1-4.418-3.578zm3.824-3.825a2.983 2.983 0 0 0-2.293 3.54 2.985 2.985 0 0 0 3.336 2.324 2.986 2.986 0 0 0-.41-5.942 3.182 3.182 0 0 0-.668.04zm0 0" fill="#231f20"/><path d="M80.027 3.148a49.32 49.32 0 0 1 11.305 8.34 31.159 31.159 0 0 0-3.824 5.739 48.97 48.97 0 0 0-4.938 27.296 36.98 36.98 0 0 1 3.828-12.398c5.41-10.5 15.934-17.48 28.805-10.844A52.462 52.462 0 0 1 128 30.367a23.015 23.015 0 0 0-3.824 5.852l-2.813 5.453c-4.265 8.281-11.86 18.383-24.004 16.871 0-.211-10.386-8.09-16.68-10.426-6.62-2.449-13.39-3.824-18.324-9.238a.531.531 0 0 0-.363-.191c-8.457-10.004-9.969-22.954-5.738-31.004C59.887.527 68.188-2.973 80.027 3.148zm0 0" fill="#ffc450"/><path d="M5.852 55.637c7.324-10.293 22.074-12.399 32.898-14.75 29.8-6.446 60.902 3.023 68.86 39.539 2.66 12.547 4.265 28.422 2.85 40.34-4.397-.575-10.597.457-17.905 2.046l-15.473 3.348c-24.004 5.184-56.18 10.176-69.586-20.125C-3.922 80.31-.48 64.645 5.852 55.637zm0 0" fill="#ffb602"/><path d="M108.816 87.043s-2.011 12.527-23.222 37.262c0 0 16.984-4.516 24.867-3.54 0 0 2.16-18.44-1.645-33.722zm0 0M90.547 50.488s-9.945 32.52-48.41 79.325c0 0 10.539 1.128 28.308-2.2 9.41-9.125 33.684-51.148 34.278-56.562 0 0-1.625-8.817-14.176-20.563zm0 0M62.184 39.32a558.128 558.128 0 0 1-45.028 80.528s5.223 5.738 17.52 8.855c9.39-9.125 34.68-49.734 49.16-82.652a47.005 47.005 0 0 0-21.652-6.73zm0 0" fill="#231f20"/><path d="M38.46 72.102c-1.718-.528-3.573.562-4.148 2.43-.57 1.866.356 3.812 2.07 4.335 1.72.528 3.575-.558 4.15-2.426.573-1.87-.356-3.812-2.071-4.34zm0 0M9.766 63.855c-1.715-.527-3.575.563-4.145 2.43-.574 1.867.352 3.809 2.07 4.336 1.715.527 3.575-.558 4.145-2.43.574-1.867-.352-3.808-2.07-4.336zm0 0" fill="#ffda93"/><path d="M8.645 66.883s0 .172-.192.496c-.18.476-.324.96-.441 1.453a13.274 13.274 0 0 0-.211 5.434 11.686 11.686 0 0 0 1.168 3.46 12.234 12.234 0 0 0 2.39 3.137c.996.961 2.114 1.785 3.329 2.45 1.218.667 2.5 1.21 3.824 1.624h.574l.5.098.973.403c.691.109 1.386.18 2.086.207a16.51 16.51 0 0 0 4.113-.305 14.085 14.085 0 0 0 6.715-3.309 12.793 12.793 0 0 0 3.21-4.363c.208-.461.372-.941.5-1.434 0-.343.114-.515.114-.515l-.23.476c-.223.438-.47.86-.747 1.266a14.533 14.533 0 0 1-1.394 1.738 14.674 14.674 0 0 1-2.145 1.914 14.57 14.57 0 0 1-2.828 1.512c-1.094.418-2.23.715-3.387.879a17.331 17.331 0 0 1-3.71 0c-.633 0-1.282-.133-1.915-.23l-.957-.172-.609-.133a29.536 29.536 0 0 1-3.828-1.32 15.268 15.268 0 0 1-3.078-2.126 12.538 12.538 0 0 1-2.297-2.636 12.012 12.012 0 0 1-1.336-2.926 13.91 13.91 0 0 1-.52-2.793 16.75 16.75 0 0 1 0-2.258c0-.633.098-1.129.157-1.472zm0 0M34.727 59.848c-2.227-.59-4.704 1.472-5.532 4.609-.832 3.133.301 6.152 2.528 6.742 2.226.59 4.703-1.476 5.535-4.61.828-3.136-.305-6.155-2.531-6.741zm0 0M19.8 56.422c-2.226-.59-4.702 1.473-5.534 4.61-.829 3.136.3 6.156 2.527 6.741 2.227.59 4.703-1.472 5.535-4.609.828-3.133-.3-6.152-2.527-6.742zm0 0M39.82 41.04l1.453-.477a40.878 40.878 0 0 1-1.586-17.903l-1.511-.191a42.31 42.31 0 0 0 1.644 18.57zm0 0" fill="#231f20"/><path d="M42.078 21.262a3.748 3.748 0 1 1-7.496 0 3.748 3.748 0 1 1 7.496 0zm0 0" fill="#231f20"/><path d="M33.816 21.262a4.511 4.511 0 0 1 4.512-4.512 4.512 4.512 0 0 1 4.516 4.512 4.514 4.514 0 0 1-9.027 0zm1.528 0a2.984 2.984 0 1 0 5.968 0 2.984 2.984 0 0 0-5.968 0zm0 0" fill="#231f20"/></g></svg>